<svg xmlns="http://www.w3.org/2000/svg" viewBox="0 0 1818.94 1053.04"><defs><style>.cls-1{fill:none;}.cls-2{fill:#007a6b;}.cls-3{fill:#ed6f1c;}.cls-4{fill:#1a1f3a;}</style></defs><g id="Layer_2" data-name="Layer 2"><g id="CurioLabs_3" data-name="CurioLabs 3"><g id="_3" data-name="3"><rect class="cls-1" width="1818.94" height="1053.04"/><g id="_3-2" data-name="3"><polygon class="cls-2" points="1680.14 503.93 1680.14 458.75 1680.14 413.58 1634.81 413.58 1634.81 368.4 1589.47 368.4 1544.14 368.4 1544.14 323.23 1498.81 323.23 1498.81 278.05 1453.47 278.05 1408.14 278.05 1408.14 232.87 1362.81 232.87 1317.47 232.87 1317.47 187.69 1272.14 187.69 1226.81 187.69 1181.47 187.69 1136.14 187.69 1136.14 142.52 1090.81 142.52 1045.47 142.52 1000.14 142.52 954.8 142.52 909.47 142.52 864.14 142.52 818.8 142.52 773.47 142.52 728.14 142.52 682.8 142.52 682.8 187.69 637.47 187.69 592.14 187.69 546.8 187.69 501.47 187.69 501.47 232.87 456.14 232.87 410.81 232.87 410.81 278.05 365.47 278.05 320.14 278.05 320.14 323.23 274.81 323.23 274.81 368.4 229.47 368.4 184.14 368.4 184.14 413.58 138.81 413.58 138.81 458.75 138.81 503.93 93.47 503.93 93.47 549.11 138.81 549.11 138.81 594.28 138.81 639.46 184.14 639.46 184.14 684.64 229.47 684.64 229.47 729.81 274.81 729.81 320.14 729.81 320.14 774.99 365.47 774.99 365.47 820.17 410.81 820.17 456.14 820.17 501.47 820.17 501.47 865.34 546.8 865.34 592.14 865.34 637.47 865.34 637.47 910.52 682.8 910.52 728.14 910.52 773.47 910.52 818.8 910.52 864.14 910.52 909.47 910.52 954.8 910.52 1000.14 910.52 1045.47 910.52 1090.81 910.52 1136.14 910.52 1181.47 910.52 1181.47 865.34 1226.81 865.34 1272.14 865.34 1317.47 865.34 1317.47 820.17 1362.81 820.17 1408.14 820.17 1453.47 820.17 1453.47 774.99 1498.81 774.99 1498.81 729.81 1544.14 729.81 1589.47 729.81 1589.47 684.64 1634.81 684.64 1634.81 639.46 1680.14 639.46 1680.14 594.28 1680.14 549.11 1725.47 549.11 1725.47 503.93 1680.14 503.93"/><polygon class="cls-3" points="709.47 838.52 709.47 793.34 573.47 793.34 573.47 748.17 437.47 748.17 437.47 702.99 392.14 702.99 392.14 657.81 301.47 657.81 301.47 612.64 256.14 612.64 256.14 567.46 210.81 567.46 210.81 485.58 256.14 485.58 256.14 440.4 346.81 440.4 346.81 395.23 392.14 395.23 392.14 350.05 482.81 350.05 482.81 304.87 573.47 304.87 573.47 259.69 754.8 259.69 754.8 214.52 1064.14 214.52 1064.14 259.69 1245.47 259.69 1245.47 304.87 1336.14 304.87 1336.14 350.05 1426.81 350.05 1426.81 395.23 1472.14 395.23 1472.14 440.4 1562.81 440.4 1562.81 485.58 1608.14 485.58 1608.14 567.46 1562.81 567.46 1562.81 612.64 1517.47 612.64 1517.47 657.81 1426.81 657.81 1426.81 702.99 1381.47 702.99 1381.47 748.17 1245.47 748.17 1245.47 793.34 1109.47 793.34 1109.47 838.52 709.47 838.52"/><path class="cls-4" d="M257.36,610.14l68,.28V627.2h-68V610.14h-50.9V457.46h50.9Zm68-152.68h-68V440.4h68Zm34.12,0v50.89H325.32V457.46ZM325.32,610.14V559.53h34.12v50.61Z"/><path class="cls-4" d="M489.48,457.46h16.78v135.9H489.48v17.06H472.33v17.06H387.12V593.36H370.34V457.46h16.78V440.4h34.12v170h34.12v-170h34.12Z"/><path class="cls-4" d="M586.52,474.52v17.05h-17V627.48h-50.9V440.4h50.9v34.12Zm0-17.06h17.06v17.06H586.52Zm84.8,0h17V559.25h-50.9V457.46H603.58V440.4h67.74Z"/><path class="cls-4" d="M786.48,457.46H769.42v153h17.06v17.06h-85V610.42h17.06v-153H701.47V440.4h85Z"/><path class="cls-4" d="M932.19,627.48h-85V610.42H813.33V576.3H796.27v-85h17.06V457.46h33.84V440.4h85v17.06h17.06v16.78h17.06V593.36H949.25v17.06H932.19Zm0-170h-68v153h68Z"/><path class="cls-4" d="M1114,576.3v50.9H978.05V457.46h16.78V440.4H1029v153H1046v16.78h17.06V593.36h16.78V576.3Z"/><path class="cls-4" d="M1261.07,457.46h17.06v153h-17.06v17.06H1142.21V610.42h-17.06V542.47h17.06V525.41h85V474.24h-68V491.3h-17.06v17.05h-17.06v-68h135.92Zm-33.84,136.18V559.25h-68v34.39Z"/><path class="cls-4" d="M1426.63,525.41h17.06v85h-17.06v17.06H1290.72v-170h16.78V440.4h34.12v68h85Zm-50.89,16.78v17.06h-34.12v17.34h34.12v17h50.89V542.19Z"/><path class="cls-4" d="M1591.08,457.18h17.06v17.06h-17.06V491.3h-85v34.11h102.08v85h-17.06v17.06H1472.22V610.42h-17.06V593.36h17.06V576.59H1574V542.47h-101.8V525.41h-17.06V457.18l17.06.28V440.4h118.86Z"/></g></g></g></g></svg>