<svg xmlns="http://www.w3.org/2000/svg" viewBox="0 0 396.85 145.01"><defs><style>.cls-1{fill:#417cae;}.cls-2{fill:#ffcf02;}.cls-3{fill:#dd0b26;}</style></defs><g id="Layer_2" data-name="Layer 2"><g id="CGY_Flame_Dark" data-name="CGY Flame Dark"><path class="cls-1" d="M138.8,103.06a53.16,53.16,0,0,1-15.37-2.24A23,23,0,0,1,117.34,99l-.12-.05-.4-.17c-.34-.11-.83-.31-1.89-.74a80,80,0,0,0-9.76-3.47c-2.41-.57-8.08-.77-12.58-.77h-1l-.17,0C80.22,92.9,72.55,84.33,72.22,84l-8.11-9.2-7-5.7,11.55.77c.58,0,1.14.06,1.65.06,2.92,0,4.14-.58,4.58-.88l0-.51a2.84,2.84,0,0,0-.49-.3c-2.84-1-7.87-3.06-8.43-3.29l-.7-.28-.53-.53c-2-2-6.88-6.18-7.49-6.7a2.26,2.26,0,0,0-1.36-.33c-2.23,0-5.1,1.56-6,2.16L31.55,71.4,45,53.92c5.26-6.86,14.28-10.66,14.66-10.82A17.71,17.71,0,0,1,66.11,42,45.1,45.1,0,0,1,76.9,43.6a21.94,21.94,0,0,0-2.26-1.94l-.11-.08-.1-.08a30.09,30.09,0,0,1-9.87-16.84L61.83,6.44l9.54,15.77A3.87,3.87,0,0,0,75,24.35c3,0,6.7-2.29,7.87-3.17l.27-.21.31-.15a35.66,35.66,0,0,1,9-2.91,18.57,18.57,0,0,1-3.46-4.76L85.36,5.6l8,2.46a15.38,15.38,0,0,0,4.57.72A15,15,0,0,0,108,4.58l.51-.56.71-.32C114.81,1.24,119.48,0,123.15,0a11.6,11.6,0,0,1,5.57,1.25A54.31,54.31,0,0,1,138.8.32a52.27,52.27,0,0,1,26.71,7.27,8,8,0,0,1,3.21,3.14,7.7,7.7,0,0,1,1,3.81,8,8,0,0,1-.65,3.13,10.42,10.42,0,0,1-1.65,2.64l-12.9,14.21,0,0a8.22,8.22,0,0,1-3,2,7.7,7.7,0,0,1-2.65.46,8.88,8.88,0,0,1-3.9-.86,15.45,15.45,0,0,0-6.25-1.22,17.22,17.22,0,0,0-8.54,2.2A16.44,16.44,0,0,0,124,43a15.59,15.59,0,0,0-2.21,8.12,15.24,15.24,0,0,0,2.27,8,17.39,17.39,0,0,0,6.18,6.08,16.49,16.49,0,0,0,8.42,2.23,18.67,18.67,0,0,0,7-1.5,8.54,8.54,0,0,1,3.72-.84,7.55,7.55,0,0,1,5.47,2.25l14.29,14a8.5,8.5,0,0,1,2.66,6.15A8,8,0,0,1,168.3,94l-.15.1A54.25,54.25,0,0,1,138.8,103.06Zm-60-24.12a23.18,23.18,0,0,0,6.36.92,17.09,17.09,0,0,0,6.51-1.15,5.72,5.72,0,0,0,1.7-1.37c-.8-1.34-1.53-2.71-2.21-4.12a5,5,0,0,0-.46.24l-.17.14-.18.1a35.64,35.64,0,0,1-8,3.86A16.22,16.22,0,0,1,78.82,78.94Z"/><path class="cls-2" d="M138.8,101.21a51.06,51.06,0,0,1-15-2.2,21.08,21.08,0,0,1-5.77-1.67c-.27-.11-.49-.21-.65-.26s-.79-.3-1.79-.71a82.83,82.83,0,0,0-10-3.56c-3.23-.75-10.77-.81-13-.81h-1c-10.48-.88-17.67-8.91-18-9.25L68.54,77l7.13,2.8a25.7,25.7,0,0,0,9.51,1.89,18.6,18.6,0,0,0,7.29-1.32,8.84,8.84,0,0,0,3.18-2.91c-.22-.34-.44-.68-.65-1a51.08,51.08,0,0,1-2.84-5.5,8.25,8.25,0,0,0-2.55,1l-.1.08-.07,0a33.26,33.26,0,0,1-7.79,3.75,13.56,13.56,0,0,1-6.52,1.72A13.4,13.4,0,0,1,67.25,75l-4.48-3.66,5.77.39c.61,0,1.21.06,1.77.06,5.07,0,6.2-1.63,6.37-1.95l0-.24.08,0c.74-1.77-1-2.74-1.65-3-2.89-1-8.21-3.2-8.44-3.29l-.34-.14-.27-.26C64,60.73,58.94,56.4,58.43,56a4.05,4.05,0,0,0-2.5-.73c-3.28,0-7,2.44-7,2.47l-9.18,6.08L46.41,55C51.38,48.56,60,45,60.31,44.8a16,16,0,0,1,5.8-.93,44.46,44.46,0,0,1,11.41,1.82,6.29,6.29,0,0,0,2.88-.47c-.16-.94-2.34-3.32-4.66-5l0,0-.06,0a28,28,0,0,1-9.24-15.71L65,15.28l4.77,7.88a5.69,5.69,0,0,0,5.16,3c4.29,0,8.94-3.51,9-3.55l.14-.1.16-.08a39.78,39.78,0,0,1,12.36-3.38,18.84,18.84,0,0,1-6-6.72L88.8,8.59l4,1.23a17.28,17.28,0,0,0,5.11.8,16.65,16.65,0,0,0,11.46-4.79l.27-.29.36-.16c5.32-2.35,9.75-3.54,13.16-3.54a9.25,9.25,0,0,1,5.23,1.36,52.16,52.16,0,0,1,10.42-1,50.46,50.46,0,0,1,25.78,7,6.42,6.42,0,0,1,2.53,2.45,5.9,5.9,0,0,1,.73,2.91,6.07,6.07,0,0,1-.51,2.41A8.67,8.67,0,0,1,166,19.12L153.15,33.25l0,0a6.38,6.38,0,0,1-2.28,1.49,5.9,5.9,0,0,1-2,.35,7,7,0,0,1-3.13-.69,17.25,17.25,0,0,0-7-1.39,19.07,19.07,0,0,0-9.44,2.43,18.23,18.23,0,0,0-6.8,6.56A17.38,17.38,0,0,0,120,51.1a17.13,17.13,0,0,0,2.53,9,19.18,19.18,0,0,0,6.83,6.71,18.27,18.27,0,0,0,9.35,2.48,20.45,20.45,0,0,0,7.7-1.66,6.77,6.77,0,0,1,3-.68,5.76,5.76,0,0,1,4.16,1.71l14.3,14a6.67,6.67,0,0,1,2.12,4.83,6,6,0,0,1-2.71,5l-.1.07A52.41,52.41,0,0,1,138.8,101.21Z"/><path class="cls-3" d="M166.51,84,152.2,70a3.89,3.89,0,0,0-2.86-1.17,5,5,0,0,0-2.21.52,22.13,22.13,0,0,1-8.46,1.83,20,20,0,0,1-10.28-2.74,21,21,0,0,1-7.48-7.35,18.87,18.87,0,0,1-2.79-9.95,19.14,19.14,0,0,1,2.73-10,20,20,0,0,1,7.48-7.22,20.82,20.82,0,0,1,10.34-2.66,19,19,0,0,1,7.81,1.56,5.23,5.23,0,0,0,2.34.52A4,4,0,0,0,150.2,33,4.42,4.42,0,0,0,151.81,32l12.75-14a6.77,6.77,0,0,0,1.07-1.69,4.33,4.33,0,0,0,.36-1.7,4.08,4.08,0,0,0-.49-2,4.62,4.62,0,0,0-1.85-1.75A48.44,48.44,0,0,0,138.8,4a49.94,49.94,0,0,0-10.87,1.18c-1.74-1.61-6.14-3-17.2,1.89a18.23,18.23,0,0,1-18.49,4.51A18.12,18.12,0,0,0,102.4,20l-.42.47c-3.46.16-11.32.84-16.93,3.65,0,0-11.5,8.83-16.84,0A26.31,26.31,0,0,0,76.84,38.7s11.91,8.83.41,8.83c0,0-10.48-3.28-16.23-1,0,0-8.42,3.49-13.15,9.65,0,0,7.4-4.93,11.71-1.64,0,0,5.55,4.72,7.81,7,0,0,5.54,2.26,8.42,3.29,0,0,4.21,1.74,2.67,5.44,0,0-.82,3.9-10.06,3.29A11.4,11.4,0,0,0,81,74.13a29.8,29.8,0,0,0,7.51-3.59s1.26-1.06,4.8-1.75a47.4,47.4,0,0,0,3.32,6.7c.41.69.85,1.35,1.29,2A12.3,12.3,0,0,1,93.27,82s-7.6,3.7-18.28-.51c0,0,6.88,7.81,16.74,8.63,0,0,10.17-.11,14.28.85s10.95,4,12,4.32a23.18,23.18,0,0,0,6.22,1.87,49.12,49.12,0,0,0,14.59,2.17A50.35,50.35,0,0,0,166.12,91a4.23,4.23,0,0,0,1.95-3.51A4.85,4.85,0,0,0,166.51,84Z"/><path class="cls-3" d="M172.37,51.88a48.27,48.27,0,0,1,6.24-24.26,46.37,46.37,0,0,1,16.91-17.31A44.79,44.79,0,0,1,218.68,4c1.65,0,2.91,0,3.78.14a60.51,60.51,0,0,1,11.7,1.69l.65.13A3.12,3.12,0,0,1,237,7a3.48,3.48,0,0,1,.78,2.34,6.11,6.11,0,0,1-.52,2.47L232,23.91c-1.39,3.56-3.47,5.33-6.24,5.33q-10.68,0-17.24,4.43T200,46.81a24.94,24.94,0,0,0-.65,5.33,21,21,0,0,0,3.84,12.36Q207,70,214.78,71.92a40.73,40.73,0,0,0,7.41.78q8.2,0,13.08-4a18,18,0,0,0,6.31-10.08h-7.29a4.48,4.48,0,0,1-3.38-1.37,4.79,4.79,0,0,1-1.3-3.45v-17A4.73,4.73,0,0,1,231,33.41,4.38,4.38,0,0,1,234.29,32h30.32a5.07,5.07,0,0,1,3.64,1.36,4.58,4.58,0,0,1,1.43,3.45l-.26,9.37c-.09,1-.2,2.88-.32,5.53s-.33,5.09-.59,7.35a41.94,41.94,0,0,1-7.94,20.75A47.88,47.88,0,0,1,243.4,94.42a47.25,47.25,0,0,1-21.86,5.34,47.9,47.9,0,0,1-24.06-6.44,50.76,50.76,0,0,1-18.22-17.5A44.37,44.37,0,0,1,172.37,51.88Z"/><path class="cls-3" d="M302.08,91.69l.26-40.59L270.59,12.85a3.43,3.43,0,0,1-.91-2.34,3.63,3.63,0,0,1,1.24-2.73A4.75,4.75,0,0,1,274,6.48l26.15.13a6.44,6.44,0,0,1,2.15.39A4.7,4.7,0,0,1,304,8l13.79,18L331.09,8a3.53,3.53,0,0,1,1.69-1A7,7,0,0,1,335,6.61l26.15-.13a4.51,4.51,0,0,1,3,1.3,3.74,3.74,0,0,1,1.17,2.73,4.19,4.19,0,0,1-.78,2.34L333.43,51,333,91.69a5.4,5.4,0,0,1-1.76,4,5.56,5.56,0,0,1-4,1.7H307.8a5.57,5.57,0,0,1-4-1.7A5.39,5.39,0,0,1,302.08,91.69Z"/><path class="cls-1" d="M83.88,142.57a9.69,9.69,0,1,1,8.41-14.42c-1.64.86-1.77.94-3.59,1.82a5.58,5.58,0,0,0-4.82-2.76,5.68,5.68,0,0,0,0,11.35,5.57,5.57,0,0,0,5-3c1.82.93,1.87,1,3.59,1.82A9.63,9.63,0,0,1,83.88,142.57Z"/><path class="cls-1" d="M111.26,135.29c0,5.17-3.05,7.68-8.16,7.68S95,140.51,95,135.29V123.41h4.2v11.88c0,2.09.53,4.15,3.93,4.15,3,0,4-1.28,4-4.15V123.41h4.2Z"/><path class="cls-1" d="M125.77,135.45l5.35,7.09H126l-4.81-6.87h-2.06v6.87h-4.23V123.41h8.61c4.82,0,6.67,3,6.67,6.13a5.72,5.72,0,0,1-4.55,5.91Zm-6.66-8.77v5.75h3.26c2,0,3.67-.45,3.67-2.89s-1.66-2.86-3.67-2.86Z"/><path class="cls-1" d="M134.2,123.41h4.2v19.11h-4.2Z"/><path class="cls-1" d="M150.61,142.76a9.89,9.89,0,1,1,9.9-9.88A9.88,9.88,0,0,1,150.61,142.76Zm-5.84-9.88a5.81,5.81,0,1,0,5.84-5.85A5.89,5.89,0,0,0,144.77,132.88Z"/><path class="cls-1" d="M188,137.7a9.88,9.88,0,1,1-8.67-14.64,10,10,0,0,1,8.64,5L184.3,130a5.64,5.64,0,0,0-5-2.81,5.78,5.78,0,1,0,0,11.56,5.44,5.44,0,0,0,5.06-2.89H184l-3.88,0a4.15,4.15,0,0,1-.75,0V132.3l9.77,0C189.12,132.88,189,136.42,188,137.7Z"/><path class="cls-1" d="M202.23,135.45l5.35,7.09h-5.13l-4.82-6.87h-2.06v6.87h-4.23V123.41H200c4.81,0,6.66,3,6.66,6.13a5.72,5.72,0,0,1-4.55,5.91Zm-6.66-8.77v5.75h3.26c2,0,3.67-.45,3.67-2.89s-1.66-2.86-3.67-2.86Z"/><path class="cls-1" d="M208.84,142.52l8.67-19.08h4.23l8.54,19.08h-4.07l-1.87-4.23h-9.66l-2,4.23ZM219.68,127l-3.21,7.38h6.34l-3.1-7.38Z"/><path class="cls-1" d="M232.26,123.41h8.62c4.79,0,6.61,3,6.61,6.13s-1.82,6.13-6.61,6.13h-4.42v6.85h-4.2Zm4.2,9h3.27c1.92,0,3.69-.42,3.69-2.86s-1.77-2.86-3.69-2.86h-3.27Z"/><path class="cls-1" d="M262.69,134.33h-8.86v8.13h-4.09V123.31h4.09v6.93h8.86v-6.88h4.12v19.1h-4.12Z"/><path class="cls-1" d="M269.94,123.41h4.2v19.11h-4.2Z"/><path class="cls-1" d="M286.51,142.57a9.69,9.69,0,1,1,0-19.37,9.59,9.59,0,0,1,8.4,5c-1.63.86-1.77.94-3.58,1.82a5.58,5.58,0,0,0-4.82-2.76,5.68,5.68,0,0,0,0,11.35,5.59,5.59,0,0,0,5-3c1.82.93,1.87,1,3.58,1.82A9.62,9.62,0,0,1,286.51,142.57Z"/><path class="cls-1" d="M300.53,136.84c.43,2.52,2.68,2.87,4.23,2.87s3.72-.43,3.72-2.38c0-4.07-11.37-1.45-11.37-8.59,0-3.94,3.69-5.78,7.14-5.78,4,0,7.66,1.74,7.66,6.15l-4.07-.59c-.51-2.22-2.46-2.3-3.77-2.3s-2.89.56-2.89,2.17c0,1.42.9,1.74,5.7,2.89,1.41.35,5.67,1.23,5.67,5.56,0,3.51-2.73,6.13-7.95,6.13-4.28,0-8.13-2.08-8.13-6.79Z"/><path class="cls-1" d="M328.1,135.08l-7-11.67h4.74l4.47,7.55,4.44-7.55h4.68l-7.09,11.78v7.33h-4.2Z"/><path class="cls-1" d="M337.2,142.52l8.67-19.08h4.23l8.53,19.08h-4.06l-1.88-4.23H343l-2,4.23ZM348,127l-3.21,7.38h6.34L348.06,127Z"/><path class="cls-1" d="M371.51,135.45l5.35,7.09h-5.14l-4.81-6.87h-2.06v6.87h-4.23V123.41h8.61c4.82,0,6.67,3,6.67,6.13a5.72,5.72,0,0,1-4.55,5.91Zm-6.66-8.77v5.75h3.26c2,0,3.67-.45,3.67-2.89s-1.66-2.86-3.67-2.86Z"/><path class="cls-1" d="M379.94,123.41h8.24c4.95,0,8.67,3.13,8.67,9.45,0,5.54-2.83,9.66-8.67,9.66h-8.24Zm4.2,15.58h3.75c2.43,0,4.76-1.5,4.76-5.73,0-3.85-1.36-6.32-5.51-6.32h-3Z"/><path class="cls-3" d="M9.69,142.58a9.69,9.69,0,1,1,8.4-14.42c-1.63.86-1.77.94-3.59,1.82a5.55,5.55,0,0,0-4.81-2.75,5.67,5.67,0,1,0,0,11.34,5.56,5.56,0,0,0,5-3c1.82.94,1.88,1,3.59,1.82A9.6,9.6,0,0,1,9.69,142.58Z"/><path class="cls-3" d="M37.84,137.71a9.88,9.88,0,1,1-8.67-14.63,10,10,0,0,1,8.64,5c-1.68.86-1.82.94-3.69,1.87a5.64,5.64,0,0,0-4.95-2.81,5.78,5.78,0,0,0,0,11.56,5.44,5.44,0,0,0,5.06-2.89H33.8l-3.88,0a2.78,2.78,0,0,1-.75,0v-3.53c2.7,0,6.47,0,9.77,0C38.94,132.9,38.83,136.43,37.84,137.71Z"/><path class="cls-3" d="M46.11,135.09l-7-11.66h4.74L48.28,131l4.44-7.54H57.4L50.31,135.2v7.33h-4.2Z"/><rect class="cls-2" x="66.07" y="120.92" width="4.19" height="24.09"/></g></g></svg>